<svg xmlns="http://www.w3.org/2000/svg" xmlns:xlink="http://www.w3.org/1999/xlink" width="500" zoomAndPan="magnify" viewBox="0 0 375 374.999991" height="500" preserveAspectRatio="xMidYMid meet" version="1.0"><defs><g/><clipPath id="id1"><path d="M 76 138.371094 L 145 138.371094 L 145 192 L 76 192 Z M 76 138.371094 " clip-rule="nonzero"/></clipPath><clipPath id="id2"><path d="M 61 156 L 150.878906 156 L 150.878906 236.671875 L 61 236.671875 Z M 61 156 " clip-rule="nonzero"/></clipPath><clipPath id="id3"><path d="M 114 188 L 150.925781 188 L 150.925781 225 L 114 225 Z M 114 188 " clip-rule="nonzero"/></clipPath></defs><rect x="-37.5" width="450" fill="#ffffff" y="-37.499999" height="449.999989" fill-opacity="1"/><rect x="-37.5" width="450" fill="#ffffff" y="-37.499999" height="449.999989" fill-opacity="1"/><rect x="-37.5" width="450" fill="#ffffff" y="-37.499999" height="449.999989" fill-opacity="1"/><rect x="-37.5" width="450" fill="#ffffff" y="-37.499999" height="449.999989" fill-opacity="1"/><path fill="#ff6d55" d="M 107.210938 218.257812 C 107.210938 218.453125 107.175781 218.636719 107.101562 218.8125 C 107.027344 218.988281 106.921875 219.144531 106.789062 219.28125 C 106.652344 219.417969 106.496094 219.523438 106.316406 219.59375 C 106.140625 219.667969 105.957031 219.707031 105.765625 219.707031 C 105.574219 219.707031 105.386719 219.667969 105.210938 219.59375 C 105.035156 219.523438 104.878906 219.417969 104.742188 219.28125 C 104.605469 219.144531 104.5 218.988281 104.429688 218.8125 C 104.355469 218.636719 104.316406 218.453125 104.316406 218.257812 C 104.316406 218.066406 104.355469 217.882812 104.429688 217.707031 C 104.5 217.527344 104.605469 217.371094 104.742188 217.238281 C 104.878906 217.101562 105.035156 216.996094 105.210938 216.921875 C 105.386719 216.851562 105.574219 216.8125 105.765625 216.8125 C 105.957031 216.8125 106.140625 216.851562 106.316406 216.921875 C 106.496094 216.996094 106.652344 217.101562 106.789062 217.238281 C 106.921875 217.371094 107.027344 217.527344 107.101562 217.707031 C 107.175781 217.882812 107.210938 218.066406 107.210938 218.257812 Z M 107.210938 218.257812 " fill-opacity="1" fill-rule="nonzero"/><g clip-path="url(#id1)"><path fill="#fdd04c" d="M 144.5625 139.78125 C 144.5625 139.585938 144.523438 139.402344 144.449219 139.222656 C 144.375 139.042969 144.273438 138.886719 144.136719 138.75 C 144 138.613281 143.839844 138.507812 143.660156 138.433594 C 143.484375 138.359375 143.296875 138.324219 143.105469 138.324219 L 133.386719 138.324219 C 133.195312 138.324219 133.007812 138.359375 132.828125 138.433594 C 132.648438 138.507812 132.492188 138.613281 132.355469 138.75 C 132.21875 138.886719 132.113281 139.042969 132.039062 139.222656 C 131.964844 139.402344 131.929688 139.585938 131.929688 139.78125 C 131.929688 139.972656 131.964844 140.160156 132.039062 140.339844 C 132.113281 140.515625 132.21875 140.675781 132.355469 140.8125 C 132.492188 140.949219 132.648438 141.054688 132.828125 141.128906 C 133.007812 141.203125 133.195312 141.238281 133.386719 141.238281 L 139.640625 141.238281 L 107.082031 177.75 L 94.054688 168.640625 C 93.898438 168.535156 93.726562 168.460938 93.542969 168.417969 C 93.355469 168.378906 93.171875 168.371094 92.984375 168.402344 C 92.796875 168.433594 92.621094 168.496094 92.460938 168.59375 C 92.296875 168.691406 92.160156 168.816406 92.046875 168.96875 L 77.207031 188.96875 C 77.097656 189.125 77.019531 189.296875 76.972656 189.484375 C 76.929688 189.671875 76.921875 189.863281 76.953125 190.054688 C 76.984375 190.246094 77.050781 190.421875 77.148438 190.589844 C 77.25 190.753906 77.378906 190.894531 77.535156 191.007812 C 77.796875 191.191406 78.089844 191.285156 78.410156 191.289062 C 78.898438 191.292969 79.289062 191.097656 79.578125 190.703125 L 93.574219 171.847656 L 106.476562 180.933594 C 106.621094 181.035156 106.78125 181.109375 106.953125 181.152344 C 107.128906 181.195312 107.304688 181.207031 107.480469 181.1875 C 107.65625 181.167969 107.824219 181.117188 107.984375 181.035156 C 108.144531 180.953125 108.28125 180.84375 108.402344 180.710938 L 141.691406 143.359375 L 141.691406 148.761719 C 141.691406 148.953125 141.726562 149.140625 141.800781 149.320312 C 141.875 149.5 141.980469 149.65625 142.117188 149.792969 C 142.253906 149.929688 142.410156 150.035156 142.589844 150.109375 C 142.769531 150.183594 142.957031 150.21875 143.152344 150.21875 C 143.34375 150.21875 143.53125 150.179688 143.707031 150.105469 C 143.886719 150.03125 144.042969 149.925781 144.179688 149.789062 C 144.316406 149.652344 144.421875 149.496094 144.496094 149.316406 C 144.570312 149.140625 144.609375 148.953125 144.609375 148.761719 Z M 144.5625 139.78125 " fill-opacity="1" fill-rule="nonzero"/></g><path fill="#3c6a98" d="M 71.5625 205.28125 L 63.28125 205.28125 C 63.085938 205.28125 62.902344 205.242188 62.722656 205.167969 C 62.542969 205.097656 62.386719 204.992188 62.25 204.855469 C 62.113281 204.71875 62.007812 204.558594 61.933594 204.382812 C 61.859375 204.203125 61.824219 204.015625 61.824219 203.824219 C 61.824219 203.628906 61.859375 203.445312 61.933594 203.265625 C 62.007812 203.085938 62.113281 202.929688 62.25 202.792969 C 62.386719 202.65625 62.542969 202.550781 62.722656 202.476562 C 62.902344 202.402344 63.085938 202.367188 63.28125 202.367188 L 71.5625 202.367188 C 71.757812 202.367188 71.941406 202.402344 72.121094 202.476562 C 72.300781 202.550781 72.457031 202.65625 72.59375 202.792969 C 72.730469 202.929688 72.835938 203.085938 72.910156 203.265625 C 72.984375 203.445312 73.019531 203.628906 73.019531 203.824219 C 73.019531 204.015625 72.984375 204.203125 72.910156 204.382812 C 72.835938 204.558594 72.730469 204.71875 72.59375 204.855469 C 72.457031 204.992188 72.300781 205.097656 72.121094 205.167969 C 71.941406 205.242188 71.757812 205.28125 71.5625 205.28125 Z M 71.5625 205.28125 " fill-opacity="1" fill-rule="nonzero"/><path fill="#3c6a98" d="M 71.5625 196.535156 L 63.28125 196.535156 C 63.085938 196.535156 62.902344 196.5 62.722656 196.425781 C 62.542969 196.351562 62.386719 196.246094 62.25 196.109375 C 62.113281 195.972656 62.007812 195.8125 61.933594 195.636719 C 61.859375 195.457031 61.824219 195.269531 61.824219 195.078125 C 61.824219 194.882812 61.859375 194.699219 61.933594 194.519531 C 62.007812 194.339844 62.113281 194.183594 62.25 194.046875 C 62.386719 193.910156 62.542969 193.804688 62.722656 193.730469 C 62.902344 193.65625 63.085938 193.621094 63.28125 193.621094 L 71.5625 193.621094 C 71.757812 193.621094 71.941406 193.65625 72.121094 193.730469 C 72.300781 193.804688 72.457031 193.910156 72.59375 194.046875 C 72.730469 194.183594 72.835938 194.339844 72.910156 194.519531 C 72.984375 194.699219 73.019531 194.882812 73.019531 195.078125 C 73.019531 195.269531 72.984375 195.457031 72.910156 195.636719 C 72.835938 195.8125 72.730469 195.972656 72.59375 196.109375 C 72.457031 196.246094 72.300781 196.351562 72.121094 196.425781 C 71.941406 196.5 71.757812 196.535156 71.5625 196.535156 Z M 71.5625 196.535156 " fill-opacity="1" fill-rule="nonzero"/><path fill="#3c6a98" d="M 71.5625 187.789062 L 63.28125 187.789062 C 63.085938 187.789062 62.902344 187.753906 62.722656 187.679688 C 62.542969 187.605469 62.386719 187.5 62.25 187.363281 C 62.113281 187.226562 62.007812 187.066406 61.933594 186.890625 C 61.859375 186.710938 61.824219 186.523438 61.824219 186.332031 C 61.824219 186.136719 61.859375 185.953125 61.933594 185.773438 C 62.007812 185.59375 62.113281 185.4375 62.25 185.300781 C 62.386719 185.164062 62.542969 185.058594 62.722656 184.984375 C 62.902344 184.910156 63.085938 184.875 63.28125 184.875 L 71.5625 184.875 C 71.757812 184.875 71.941406 184.910156 72.121094 184.984375 C 72.300781 185.058594 72.457031 185.164062 72.59375 185.300781 C 72.730469 185.4375 72.835938 185.59375 72.910156 185.773438 C 72.984375 185.953125 73.019531 186.136719 73.019531 186.332031 C 73.019531 186.523438 72.984375 186.710938 72.910156 186.890625 C 72.835938 187.066406 72.730469 187.226562 72.59375 187.363281 C 72.457031 187.5 72.300781 187.605469 72.121094 187.679688 C 71.941406 187.753906 71.757812 187.789062 71.5625 187.789062 Z M 71.5625 187.789062 " fill-opacity="1" fill-rule="nonzero"/><path fill="#3c6a98" d="M 71.5625 179.042969 L 63.28125 179.042969 C 63.085938 179.042969 62.902344 179.007812 62.722656 178.933594 C 62.542969 178.859375 62.386719 178.753906 62.25 178.617188 C 62.113281 178.480469 62.007812 178.324219 61.933594 178.144531 C 61.859375 177.964844 61.824219 177.777344 61.824219 177.585938 C 61.824219 177.394531 61.859375 177.207031 61.933594 177.027344 C 62.007812 176.847656 62.113281 176.691406 62.25 176.554688 C 62.386719 176.417969 62.542969 176.3125 62.722656 176.238281 C 62.902344 176.164062 63.085938 176.128906 63.28125 176.128906 L 71.5625 176.128906 C 71.757812 176.128906 71.941406 176.164062 72.121094 176.238281 C 72.300781 176.3125 72.457031 176.417969 72.59375 176.554688 C 72.730469 176.691406 72.835938 176.847656 72.910156 177.027344 C 72.984375 177.207031 73.019531 177.394531 73.019531 177.585938 C 73.019531 177.777344 72.984375 177.964844 72.910156 178.144531 C 72.835938 178.324219 72.730469 178.480469 72.59375 178.617188 C 72.457031 178.753906 72.300781 178.859375 72.121094 178.933594 C 71.941406 179.007812 71.757812 179.042969 71.5625 179.042969 Z M 71.5625 179.042969 " fill-opacity="1" fill-rule="nonzero"/><path fill="#3c6a98" d="M 71.5625 170.296875 L 63.28125 170.296875 C 63.085938 170.296875 62.902344 170.261719 62.722656 170.1875 C 62.542969 170.113281 62.386719 170.007812 62.25 169.871094 C 62.113281 169.734375 62.007812 169.578125 61.933594 169.398438 C 61.859375 169.21875 61.824219 169.035156 61.824219 168.839844 C 61.824219 168.648438 61.859375 168.460938 61.933594 168.28125 C 62.007812 168.105469 62.113281 167.945312 62.25 167.808594 C 62.386719 167.671875 62.542969 167.566406 62.722656 167.492188 C 62.902344 167.417969 63.085938 167.382812 63.28125 167.382812 L 71.5625 167.382812 C 71.757812 167.382812 71.941406 167.417969 72.121094 167.492188 C 72.300781 167.566406 72.457031 167.671875 72.59375 167.808594 C 72.730469 167.945312 72.835938 168.105469 72.910156 168.28125 C 72.984375 168.460938 73.019531 168.648438 73.019531 168.839844 C 73.019531 169.035156 72.984375 169.21875 72.910156 169.398438 C 72.835938 169.578125 72.730469 169.734375 72.59375 169.871094 C 72.457031 170.007812 72.300781 170.113281 72.121094 170.1875 C 71.941406 170.261719 71.757812 170.296875 71.5625 170.296875 Z M 71.5625 170.296875 " fill-opacity="1" fill-rule="nonzero"/><g clip-path="url(#id2)"><path fill="#a1d9e1" d="M 150.429688 212.605469 L 150.429688 160.792969 C 150.429688 160.277344 150.332031 159.777344 150.132812 159.300781 C 149.933594 158.820312 149.652344 158.398438 149.285156 158.03125 C 148.917969 157.664062 148.496094 157.382812 148.015625 157.183594 C 147.539062 156.988281 147.039062 156.886719 146.523438 156.886719 L 134.695312 156.886719 C 134.5 156.886719 134.3125 156.925781 134.136719 157 C 133.957031 157.074219 133.800781 157.179688 133.664062 157.316406 C 133.527344 157.453125 133.421875 157.609375 133.347656 157.789062 C 133.273438 157.964844 133.234375 158.152344 133.234375 158.34375 C 133.234375 158.539062 133.273438 158.722656 133.347656 158.902344 C 133.421875 159.082031 133.527344 159.238281 133.664062 159.375 C 133.800781 159.511719 133.957031 159.617188 134.136719 159.691406 C 134.3125 159.765625 134.5 159.804688 134.695312 159.804688 L 146.476562 159.804688 C 146.605469 159.804688 146.734375 159.828125 146.855469 159.878906 C 146.976562 159.929688 147.082031 160 147.175781 160.09375 C 147.269531 160.1875 147.339844 160.292969 147.390625 160.414062 C 147.441406 160.535156 147.464844 160.664062 147.464844 160.792969 L 147.464844 211.507812 L 142.4375 211.507812 L 142.4375 168.839844 C 142.4375 168.648438 142.402344 168.460938 142.328125 168.28125 C 142.253906 168.105469 142.148438 167.945312 142.011719 167.808594 C 141.875 167.671875 141.71875 167.566406 141.539062 167.492188 C 141.359375 167.417969 141.175781 167.382812 140.980469 167.382812 L 132.523438 167.382812 C 132.332031 167.382812 132.144531 167.417969 131.964844 167.492188 C 131.785156 167.566406 131.628906 167.671875 131.492188 167.808594 C 131.355469 167.945312 131.25 168.105469 131.175781 168.28125 C 131.101562 168.460938 131.066406 168.648438 131.066406 168.839844 L 131.066406 211.507812 L 124.777344 211.507812 L 124.777344 195.183594 C 124.773438 194.992188 124.734375 194.808594 124.65625 194.636719 C 124.582031 194.460938 124.476562 194.308594 124.339844 194.175781 C 124.203125 194.042969 124.046875 193.9375 123.871094 193.867188 C 123.695312 193.796875 123.511719 193.757812 123.320312 193.757812 L 114.863281 193.757812 C 114.667969 193.757812 114.484375 193.796875 114.304688 193.871094 C 114.125 193.945312 113.96875 194.050781 113.832031 194.1875 C 113.695312 194.324219 113.589844 194.480469 113.515625 194.660156 C 113.441406 194.839844 113.40625 195.023438 113.40625 195.21875 L 113.40625 211.542969 L 107.128906 211.542969 L 107.128906 190.261719 C 107.128906 190.066406 107.09375 189.882812 107.019531 189.703125 C 106.945312 189.523438 106.839844 189.367188 106.703125 189.230469 C 106.566406 189.09375 106.40625 188.988281 106.230469 188.914062 C 106.050781 188.839844 105.863281 188.804688 105.671875 188.804688 L 97.226562 188.804688 C 97.03125 188.804688 96.847656 188.839844 96.667969 188.914062 C 96.488281 188.988281 96.332031 189.09375 96.195312 189.230469 C 96.058594 189.367188 95.953125 189.523438 95.878906 189.703125 C 95.804688 189.882812 95.769531 190.066406 95.769531 190.261719 L 95.769531 211.507812 L 89.480469 211.507812 L 89.480469 202.390625 C 89.480469 202.195312 89.445312 202.011719 89.371094 201.832031 C 89.296875 201.65625 89.191406 201.5 89.058594 201.363281 C 88.921875 201.226562 88.765625 201.121094 88.589844 201.046875 C 88.410156 200.972656 88.226562 200.933594 88.035156 200.929688 L 79.566406 200.929688 C 79.371094 200.929688 79.1875 200.96875 79.007812 201.042969 C 78.828125 201.117188 78.671875 201.222656 78.535156 201.359375 C 78.398438 201.496094 78.292969 201.652344 78.21875 201.832031 C 78.144531 202.007812 78.105469 202.195312 78.105469 202.390625 L 78.105469 211.507812 L 64.039062 211.507812 L 64.039062 160.792969 C 64.039062 160.664062 64.0625 160.535156 64.113281 160.414062 C 64.164062 160.292969 64.238281 160.1875 64.328125 160.09375 C 64.421875 160 64.53125 159.929688 64.652344 159.878906 C 64.773438 159.828125 64.898438 159.804688 65.03125 159.804688 L 118.363281 159.804688 C 118.554688 159.804688 118.742188 159.765625 118.921875 159.691406 C 119.097656 159.617188 119.257812 159.511719 119.394531 159.375 C 119.53125 159.238281 119.636719 159.082031 119.710938 158.902344 C 119.785156 158.722656 119.820312 158.539062 119.820312 158.34375 C 119.820312 158.152344 119.785156 157.964844 119.710938 157.789062 C 119.636719 157.609375 119.53125 157.453125 119.394531 157.316406 C 119.257812 157.179688 119.097656 157.074219 118.921875 157 C 118.742188 156.925781 118.554688 156.886719 118.363281 156.886719 L 65.03125 156.886719 C 64.511719 156.886719 64.015625 156.988281 63.535156 157.183594 C 63.054688 157.382812 62.632812 157.664062 62.265625 158.03125 C 61.902344 158.398438 61.617188 158.820312 61.421875 159.300781 C 61.222656 159.777344 61.121094 160.277344 61.121094 160.792969 L 61.121094 212.605469 C 61.085938 212.722656 61.0625 212.84375 61.054688 212.964844 L 61.054688 220.5 C 61.082031 221.078125 61.210938 221.628906 61.441406 222.160156 C 61.671875 222.691406 61.988281 223.164062 62.394531 223.578125 C 62.796875 223.992188 63.261719 224.324219 63.785156 224.566406 C 64.3125 224.8125 64.863281 224.957031 65.4375 225 L 94.402344 225 C 94.402344 227.097656 94.402344 230.585938 94.238281 231.390625 C 94.070312 231.964844 93.769531 232.457031 93.339844 232.875 C 92.910156 233.289062 92.40625 233.574219 91.824219 233.722656 L 87.402344 233.722656 C 87.210938 233.722656 87.023438 233.757812 86.847656 233.832031 C 86.667969 233.90625 86.507812 234.011719 86.371094 234.148438 C 86.234375 234.285156 86.128906 234.441406 86.058594 234.621094 C 85.984375 234.800781 85.945312 234.988281 85.945312 235.179688 C 85.945312 235.371094 85.984375 235.558594 86.058594 235.738281 C 86.128906 235.917969 86.234375 236.074219 86.371094 236.210938 C 86.507812 236.347656 86.667969 236.453125 86.847656 236.527344 C 87.023438 236.601562 87.210938 236.636719 87.402344 236.636719 L 124.195312 236.636719 C 124.386719 236.636719 124.574219 236.601562 124.753906 236.527344 C 124.929688 236.453125 125.089844 236.347656 125.226562 236.210938 C 125.363281 236.074219 125.46875 235.917969 125.542969 235.738281 C 125.617188 235.558594 125.652344 235.371094 125.652344 235.179688 C 125.652344 234.988281 125.617188 234.800781 125.542969 234.621094 C 125.46875 234.441406 125.363281 234.285156 125.226562 234.148438 C 125.089844 234.011719 124.929688 233.90625 124.753906 233.832031 C 124.574219 233.757812 124.386719 233.722656 124.195312 233.722656 L 119.527344 233.722656 C 118.972656 233.566406 118.496094 233.28125 118.097656 232.863281 C 117.699219 232.445312 117.4375 231.953125 117.3125 231.390625 C 117.160156 230.574219 117.160156 227.050781 117.136719 225 L 146.730469 225 C 149.066406 225 150.5 222.773438 150.5 220.613281 L 150.5 212.964844 C 150.488281 212.84375 150.464844 212.722656 150.429688 212.605469 Z M 146.730469 222.085938 L 65.4375 222.085938 C 65.050781 222 64.722656 221.8125 64.453125 221.523438 C 64.183594 221.230469 64.023438 220.890625 63.96875 220.5 L 63.96875 214.46875 L 147.582031 214.46875 L 147.582031 220.582031 C 147.582031 221.316406 147.234375 222.085938 146.730469 222.085938 Z M 146.730469 222.085938 " fill-opacity="1" fill-rule="nonzero"/></g><path fill="#3c6a98" d="M 95.769531 190.261719 C 95.765625 190.066406 95.800781 189.882812 95.875 189.703125 C 95.949219 189.523438 96.054688 189.363281 96.191406 189.226562 C 96.328125 189.089844 96.488281 188.984375 96.664062 188.910156 C 96.84375 188.839844 97.03125 188.800781 97.226562 188.804688 L 105.671875 188.804688 C 105.863281 188.804688 106.050781 188.839844 106.230469 188.914062 C 106.40625 188.988281 106.566406 189.09375 106.703125 189.230469 C 106.839844 189.367188 106.945312 189.523438 107.019531 189.703125 C 107.09375 189.882812 107.128906 190.066406 107.128906 190.261719 L 107.128906 211.496094 L 95.769531 211.496094 Z M 95.769531 190.261719 " fill-opacity="1" fill-rule="nonzero"/><path fill="#ff6d55" d="M 113.417969 195.171875 C 113.421875 194.984375 113.464844 194.800781 113.539062 194.628906 C 113.617188 194.457031 113.722656 194.304688 113.855469 194.175781 C 113.992188 194.042969 114.144531 193.941406 114.320312 193.871094 C 114.492188 193.796875 114.675781 193.761719 114.863281 193.757812 L 123.308594 193.757812 C 123.5 193.757812 123.6875 193.796875 123.867188 193.871094 C 124.046875 193.945312 124.203125 194.050781 124.339844 194.1875 C 124.476562 194.324219 124.582031 194.480469 124.65625 194.660156 C 124.730469 194.839844 124.765625 195.023438 124.765625 195.21875 L 124.765625 211.542969 L 113.417969 211.542969 Z M 113.417969 195.171875 " fill-opacity="1" fill-rule="nonzero"/><path fill="#fdd04c" d="M 131.066406 168.839844 C 131.066406 168.648438 131.101562 168.460938 131.175781 168.28125 C 131.25 168.105469 131.355469 167.945312 131.492188 167.808594 C 131.628906 167.671875 131.785156 167.566406 131.964844 167.492188 C 132.144531 167.417969 132.332031 167.382812 132.523438 167.382812 L 140.980469 167.382812 C 141.175781 167.382812 141.359375 167.417969 141.539062 167.492188 C 141.71875 167.566406 141.875 167.671875 142.011719 167.808594 C 142.148438 167.945312 142.253906 168.105469 142.328125 168.28125 C 142.402344 168.460938 142.4375 168.648438 142.4375 168.839844 L 142.4375 211.496094 L 131.066406 211.496094 Z M 131.066406 168.839844 " fill-opacity="1" fill-rule="nonzero"/><path fill="#ff6d55" d="M 78.105469 202.402344 C 78.105469 202.207031 78.140625 202.019531 78.214844 201.839844 C 78.289062 201.660156 78.394531 201.503906 78.53125 201.367188 C 78.667969 201.230469 78.824219 201.125 79.003906 201.050781 C 79.183594 200.976562 79.371094 200.941406 79.566406 200.941406 L 88.035156 200.941406 C 88.226562 200.941406 88.414062 200.976562 88.59375 201.050781 C 88.773438 201.125 88.929688 201.230469 89.066406 201.367188 C 89.207031 201.503906 89.3125 201.660156 89.382812 201.839844 C 89.457031 202.019531 89.492188 202.207031 89.492188 202.402344 L 89.492188 211.496094 L 78.105469 211.496094 Z M 78.105469 202.402344 " fill-opacity="1" fill-rule="nonzero"/><g clip-path="url(#id3)"><path fill="#3c6a98" d="M 117.4375 191.488281 C 116.933594 191.992188 116.484375 192.542969 116.089844 193.132812 C 115.691406 193.726562 115.359375 194.351562 115.085938 195.011719 C 114.8125 195.671875 114.605469 196.351562 114.46875 197.050781 C 114.328125 197.75 114.257812 198.453125 114.257812 199.167969 C 114.257812 199.878906 114.328125 200.585938 114.46875 201.285156 C 114.605469 201.984375 114.8125 202.664062 115.085938 203.324219 C 115.359375 203.980469 115.691406 204.609375 116.089844 205.199219 C 116.484375 205.792969 116.933594 206.34375 117.4375 206.847656 C 117.921875 207.328125 118.441406 207.757812 119.007812 208.140625 C 119.570312 208.523438 120.164062 208.851562 120.789062 209.125 C 121.414062 209.394531 122.054688 209.605469 122.722656 209.753906 C 123.386719 209.90625 124.058594 209.992188 124.738281 210.015625 C 125.417969 210.042969 126.09375 210 126.769531 209.898438 C 127.441406 209.796875 128.097656 209.628906 128.742188 209.402344 C 129.382812 209.175781 130 208.894531 130.585938 208.550781 C 131.175781 208.207031 131.726562 207.816406 132.242188 207.367188 L 136.28125 211.421875 C 136.125 211.996094 136.25 212.496094 136.660156 212.925781 L 148.203125 224.5 C 148.351562 224.648438 148.523438 224.765625 148.71875 224.847656 C 148.914062 224.929688 149.113281 224.96875 149.328125 224.96875 C 149.539062 224.96875 149.742188 224.929688 149.933594 224.847656 C 150.128906 224.765625 150.300781 224.648438 150.449219 224.5 C 150.757812 224.1875 150.910156 223.816406 150.910156 223.375 C 150.910156 222.9375 150.757812 222.5625 150.449219 222.253906 L 138.875 210.679688 C 138.667969 210.472656 138.421875 210.335938 138.136719 210.269531 C 137.851562 210.199219 137.570312 210.210938 137.292969 210.296875 L 133.320312 206.292969 C 133.757812 205.765625 134.140625 205.199219 134.472656 204.601562 C 134.800781 204 135.074219 203.375 135.285156 202.722656 C 135.496094 202.070312 135.644531 201.402344 135.730469 200.722656 C 135.816406 200.042969 135.835938 199.363281 135.792969 198.675781 C 135.75 197.992188 135.640625 197.320312 135.46875 196.65625 C 135.300781 195.992188 135.066406 195.351562 134.773438 194.730469 C 134.480469 194.113281 134.132812 193.523438 133.726562 192.972656 C 133.324219 192.417969 132.871094 191.90625 132.367188 191.441406 C 131.867188 190.972656 131.328125 190.554688 130.746094 190.191406 C 130.167969 189.824219 129.558594 189.519531 128.917969 189.269531 C 128.28125 189.019531 127.625 188.832031 126.949219 188.707031 C 126.277344 188.582031 125.597656 188.519531 124.910156 188.523438 C 124.226562 188.527344 123.546875 188.597656 122.875 188.730469 C 122.203125 188.859375 121.546875 189.054688 120.914062 189.3125 C 120.277344 189.570312 119.671875 189.882812 119.09375 190.253906 C 118.519531 190.625 117.980469 191.046875 117.484375 191.519531 Z M 131.6875 192.597656 C 132.117188 193.027344 132.503906 193.496094 132.839844 194.003906 C 133.179688 194.507812 133.464844 195.042969 133.699219 195.605469 C 133.929688 196.171875 134.105469 196.75 134.226562 197.347656 C 134.34375 197.945312 134.402344 198.546875 134.402344 199.15625 C 134.402344 199.765625 134.34375 200.371094 134.226562 200.96875 C 134.105469 201.566406 133.929688 202.144531 133.695312 202.707031 C 133.464844 203.269531 133.175781 203.804688 132.839844 204.3125 C 132.5 204.816406 132.117188 205.285156 131.683594 205.714844 C 131.253906 206.148438 130.785156 206.53125 130.28125 206.871094 C 129.773438 207.207031 129.238281 207.496094 128.675781 207.726562 C 128.113281 207.960938 127.53125 208.136719 126.933594 208.253906 C 126.335938 208.375 125.734375 208.433594 125.125 208.433594 C 124.515625 208.433594 123.914062 208.375 123.316406 208.253906 C 122.71875 208.136719 122.136719 207.960938 121.574219 207.726562 C 121.011719 207.496094 120.476562 207.207031 119.972656 206.871094 C 119.464844 206.53125 118.996094 206.148438 118.566406 205.714844 C 118.132812 205.285156 117.75 204.816406 117.410156 204.3125 C 117.074219 203.804688 116.789062 203.269531 116.554688 202.707031 C 116.320312 202.144531 116.144531 201.566406 116.027344 200.96875 C 115.90625 200.371094 115.847656 199.765625 115.847656 199.15625 C 115.847656 198.546875 115.90625 197.945312 116.023438 197.347656 C 116.144531 196.75 116.320312 196.171875 116.550781 195.605469 C 116.785156 195.042969 117.070312 194.507812 117.410156 194.003906 C 117.746094 193.496094 118.132812 193.027344 118.5625 192.597656 C 118.992188 192.164062 119.457031 191.777344 119.964844 191.433594 C 120.46875 191.09375 121.003906 190.804688 121.566406 190.570312 C 122.128906 190.335938 122.707031 190.160156 123.304688 190.039062 C 123.902344 189.917969 124.507812 189.859375 125.117188 189.859375 C 125.726562 189.859375 126.332031 189.917969 126.929688 190.039062 C 127.527344 190.160156 128.105469 190.335938 128.667969 190.570312 C 129.230469 190.804688 129.765625 191.09375 130.269531 191.433594 C 130.777344 191.777344 131.242188 192.164062 131.671875 192.597656 Z M 131.6875 192.597656 " fill-opacity="1" fill-rule="nonzero"/></g><path fill="#3c6a98" d="M 119.574219 193.625 C 119.425781 193.78125 119.347656 193.96875 119.347656 194.1875 C 119.347656 194.40625 119.425781 194.59375 119.574219 194.75 C 119.730469 194.90625 119.917969 194.984375 120.136719 194.984375 C 120.359375 194.984375 120.546875 194.90625 120.699219 194.75 C 120.972656 194.480469 121.265625 194.234375 121.582031 194.019531 C 121.894531 193.800781 122.226562 193.613281 122.578125 193.457031 C 122.925781 193.300781 123.289062 193.175781 123.660156 193.082031 C 124.03125 192.992188 124.410156 192.933594 124.792969 192.910156 C 125.175781 192.886719 125.554688 192.898438 125.9375 192.945312 C 126.316406 192.992188 126.691406 193.070312 127.054688 193.183594 C 127.421875 193.300781 127.773438 193.445312 128.113281 193.621094 C 128.453125 193.800781 128.773438 194.007812 129.074219 194.242188 C 129.246094 194.382812 129.4375 194.441406 129.65625 194.414062 C 129.875 194.390625 130.050781 194.289062 130.183594 194.117188 C 130.308594 193.976562 130.371094 193.8125 130.375 193.625 C 130.371094 193.375 130.269531 193.167969 130.074219 193.007812 C 129.695312 192.710938 129.292969 192.449219 128.871094 192.226562 C 128.445312 192 128.003906 191.816406 127.546875 191.671875 C 127.085938 191.527344 126.617188 191.425781 126.140625 191.367188 C 125.664062 191.308594 125.1875 191.292969 124.707031 191.324219 C 124.226562 191.351562 123.753906 191.421875 123.289062 191.535156 C 122.820312 191.652344 122.367188 191.804688 121.929688 192.003906 C 121.492188 192.199219 121.074219 192.433594 120.679688 192.707031 C 120.285156 192.980469 119.914062 193.285156 119.574219 193.625 Z M 119.574219 193.625 " fill-opacity="1" fill-rule="nonzero"/><g fill="#3c6a98" fill-opacity="1"><g transform="translate(161.45023, 203.382472)"><g><path d="M 8.84375 -17.394531 C 8.945312 -17.394531 8.992188 -17.394531 9.042969 -17.394531 C 9.09375 -17.144531 9.191406 -16.898438 9.238281 -16.652344 C 9.636719 -14.578125 10.082031 -12.5 10.425781 -10.375 C 10.820312 -8.351562 11.117188 -6.324219 11.511719 -4.347656 C 11.761719 -3.210938 12.054688 -2.074219 12.699219 -1.085938 C 13.144531 -0.445312 13.6875 0.0507812 14.429688 0.246094 C 15.761719 0.59375 17.046875 0.0507812 17.789062 -1.234375 C 18.234375 -2.074219 18.628906 -3.015625 18.925781 -3.953125 C 19.667969 -6.324219 20.359375 -8.648438 21.097656 -11.019531 C 22.136719 -14.328125 23.175781 -17.640625 24.210938 -20.949219 C 24.261719 -21.199219 24.3125 -21.496094 24.65625 -21.742188 C 24.707031 -21.394531 24.753906 -21.148438 24.753906 -20.902344 C 24.902344 -18.28125 25.003906 -15.664062 25.199219 -13.09375 C 25.449219 -10.128906 25.792969 -7.214844 26.089844 -4.300781 C 26.1875 -3.65625 26.386719 -3.015625 26.683594 -2.46875 C 27.421875 -1.285156 28.511719 -0.59375 29.894531 -0.691406 C 31.328125 -0.789062 32.316406 -1.628906 32.859375 -2.964844 C 33.15625 -3.65625 33.253906 -4.347656 33.15625 -5.089844 C 33.105469 -5.582031 33.058594 -6.078125 33.007812 -6.570312 C 32.710938 -9.882812 32.464844 -13.242188 32.117188 -16.554688 C 31.820312 -19.222656 31.328125 -21.839844 30.980469 -24.507812 C 30.734375 -26.289062 30.4375 -28.015625 29.84375 -29.746094 C 29.546875 -30.683594 29.105469 -31.574219 28.363281 -32.265625 C 27.523438 -33.105469 26.535156 -33.304688 25.449219 -33.007812 C 24.707031 -32.808594 24.113281 -32.363281 23.570312 -31.722656 C 22.335938 -30.242188 21.496094 -28.511719 20.851562 -26.683594 C 19.371094 -22.285156 17.835938 -17.9375 16.355469 -13.589844 C 16.257812 -13.292969 16.15625 -13.042969 16.007812 -12.796875 C 15.8125 -13.042969 15.761719 -13.292969 15.714844 -13.539062 C 15.367188 -15.464844 15.070312 -17.34375 14.773438 -19.269531 C 14.328125 -21.789062 13.6875 -24.210938 12.796875 -26.632812 C 12.601562 -27.175781 12.351562 -27.671875 12.007812 -28.164062 C 11.265625 -29.300781 10.179688 -29.746094 8.84375 -29.597656 C 7.609375 -29.398438 6.820312 -28.707031 6.226562 -27.71875 C 5.285156 -26.140625 4.59375 -24.460938 4.003906 -22.777344 C 2.371094 -18.183594 1.234375 -13.441406 0.296875 -8.695312 C 0.148438 -7.660156 -0.0507812 -6.671875 0.0976562 -5.632812 C 0.246094 -4.59375 0.789062 -3.855469 1.679688 -3.65625 C 2.617188 -3.410156 3.457031 -3.804688 4.050781 -4.742188 C 4.300781 -5.140625 4.546875 -5.582031 4.695312 -6.078125 C 5.980469 -9.535156 7.214844 -12.996094 8.5 -16.453125 C 8.597656 -16.75 8.746094 -17.046875 8.84375 -17.394531 Z M 10.128906 -28.410156 C 8.351562 -28.214844 7.558594 -26.980469 6.71875 -25.695312 C 6.421875 -25.25 6.175781 -24.804688 5.832031 -24.261719 C 5.730469 -24.507812 5.683594 -24.605469 5.683594 -24.65625 C 6.078125 -26.238281 6.867188 -27.621094 8.300781 -28.511719 C 8.597656 -28.660156 8.945312 -28.757812 9.289062 -28.808594 C 9.585938 -28.855469 9.882812 -28.855469 10.128906 -28.410156 Z M 27.175781 -6.324219 C 27.472656 -4.398438 28.164062 -2.765625 30.140625 -1.878906 C 29.796875 -1.480469 29.449219 -1.53125 29.203125 -1.628906 C 28.808594 -1.828125 28.363281 -2.027344 28.066406 -2.324219 C 27.128906 -3.359375 26.730469 -4.59375 26.878906 -6.027344 C 26.878906 -6.078125 26.929688 -6.175781 26.980469 -6.273438 C 26.980469 -6.273438 27.027344 -6.273438 27.175781 -6.324219 Z M 22.335938 -27.472656 C 22.382812 -27.621094 22.335938 -27.820312 22.382812 -27.96875 C 22.828125 -29.152344 23.324219 -30.289062 24.210938 -31.226562 C 24.558594 -31.574219 25.003906 -31.871094 25.449219 -32.167969 C 25.742188 -32.363281 25.792969 -32.316406 26.335938 -32.117188 C 26.289062 -32.070312 26.238281 -31.921875 26.1875 -31.921875 C 25.050781 -31.425781 24.359375 -30.488281 23.765625 -29.449219 C 23.472656 -28.90625 23.175781 -28.363281 22.878906 -27.867188 C 22.777344 -27.671875 22.628906 -27.570312 22.53125 -27.375 C 22.484375 -27.421875 22.433594 -27.421875 22.335938 -27.472656 Z M 12.898438 -5.238281 C 13.886719 -3.707031 14.230469 -1.679688 16.40625 -0.839844 C 16.007812 -0.742188 15.859375 -0.59375 15.761719 -0.640625 C 15.167969 -0.691406 14.578125 -0.839844 14.179688 -1.335938 C 13.292969 -2.46875 12.996094 -3.804688 12.898438 -5.238281 Z M 1.335938 -8.746094 C 1.382812 -8.003906 1.335938 -7.261719 1.53125 -6.523438 C 1.730469 -5.832031 2.125 -5.1875 2.46875 -4.496094 C 2.074219 -4.347656 1.828125 -4.59375 1.53125 -4.890625 C 0.640625 -5.730469 0.492188 -7.609375 1.335938 -8.746094 Z M 1.335938 -8.746094 "/></g></g></g><g fill="#3c6a98" fill-opacity="1"><g transform="translate(196.137593, 203.382472)"><g><path d="M 16.652344 -5.582031 C 16.847656 -4.742188 17.046875 -3.953125 17.246094 -3.164062 C 17.34375 -2.667969 17.492188 -2.074219 17.691406 -1.582031 C 18.035156 -0.742188 18.726562 -0.347656 19.617188 -0.347656 C 20.554688 -0.347656 21.199219 -0.742188 21.542969 -1.582031 C 21.742188 -2.125 21.839844 -2.71875 21.890625 -3.261719 C 22.085938 -7.363281 21.839844 -11.5625 21.097656 -15.566406 C 20.308594 -19.914062 19.417969 -24.804688 17.394531 -28.707031 C 16.601562 -30.289062 15.515625 -31.574219 13.933594 -32.464844 C 12.945312 -33.058594 11.910156 -33.304688 10.773438 -33.007812 C 9.386719 -32.660156 8.351562 -31.820312 7.460938 -30.785156 C 1.335938 -23.914062 0.988281 -13.191406 0.0976562 -4.546875 C 0 -3.707031 0 -2.816406 0.0507812 -1.976562 C 0.148438 -0.988281 0.789062 -0.296875 1.679688 -0.246094 C 2.71875 -0.148438 3.359375 -0.640625 3.65625 -1.679688 C 3.753906 -2.027344 3.855469 -2.371094 3.902344 -2.71875 C 3.953125 -3.210938 4.199219 -3.457031 4.742188 -3.558594 C 6.917969 -4.003906 9.140625 -4.496094 11.316406 -4.941406 C 13.042969 -5.285156 14.773438 -5.582031 16.652344 -5.582031 Z M 11.265625 -27.277344 C 11.808594 -27.027344 12.007812 -26.582031 12.15625 -26.140625 C 12.601562 -24.804688 13.042969 -23.421875 13.390625 -22.039062 C 14.082031 -18.824219 14.726562 -15.613281 15.417969 -12.351562 C 15.417969 -12.253906 15.417969 -12.15625 15.417969 -11.910156 C 11.910156 -11.511719 8.5 -10.625 5.1875 -9.191406 C 5.1875 -9.488281 5.140625 -9.636719 5.140625 -9.734375 C 5.78125 -13.886719 6.523438 -17.984375 8.054688 -21.890625 C 8.695312 -23.570312 9.535156 -25.152344 10.625 -26.582031 C 10.820312 -26.832031 11.066406 -27.027344 11.265625 -27.277344 Z M 7.558594 -28.855469 C 7.511719 -29.695312 8.351562 -30.734375 9.585938 -31.574219 C 10.523438 -32.167969 11.511719 -32.464844 12.601562 -32.019531 C 11.660156 -31.722656 10.625 -31.574219 9.882812 -30.882812 C 9.09375 -30.242188 8.351562 -29.546875 7.558594 -28.855469 Z M 17.789062 -5.1875 C 18.332031 -3.65625 18.578125 -1.976562 20.457031 -1.234375 C 20.011719 -0.9375 19.617188 -1.039062 19.371094 -1.1875 C 19.023438 -1.433594 18.679688 -1.730469 18.429688 -2.074219 C 17.835938 -3.015625 17.738281 -4.050781 17.789062 -5.1875 Z M 0.839844 -4.25 C 1.136719 -3.0625 0.988281 -1.679688 2.371094 -0.988281 C 1.679688 -0.691406 1.1875 -0.839844 0.890625 -1.53125 C 0.445312 -2.421875 0.347656 -3.3125 0.839844 -4.25 Z M 0.839844 -4.25 "/></g></g></g><g fill="#3c6a98" fill-opacity="1"><g transform="translate(219.608381, 203.382472)"><g><path d="M 7.015625 -16.40625 C 7.015625 -16.601562 7.015625 -16.75 7.015625 -16.949219 C 7.117188 -19.023438 7.609375 -21 8.300781 -22.925781 C 8.648438 -24.0625 9.191406 -25.003906 9.933594 -25.890625 C 11.019531 -27.375 12.5 -28.015625 14.328125 -27.917969 C 15.417969 -27.820312 16.109375 -27.324219 16.652344 -26.433594 C 16.703125 -26.289062 16.75 -26.140625 16.847656 -26.039062 C 17.195312 -25.347656 17.789062 -25.003906 18.578125 -25.101562 C 19.320312 -25.152344 19.8125 -25.59375 20.0625 -26.289062 C 20.308594 -26.929688 20.308594 -27.570312 20.0625 -28.265625 C 19.371094 -30.339844 17.886719 -31.671875 15.960938 -32.414062 C 13.933594 -33.15625 11.859375 -33.15625 9.832031 -32.464844 C 7.261719 -31.574219 5.335938 -29.84375 3.855469 -27.621094 C 0.394531 -22.382812 -0.839844 -16.703125 0.691406 -10.574219 C 1.777344 -6.078125 4.25 -2.570312 8.796875 -0.9375 C 11.761719 0.0976562 14.578125 -0.296875 17.097656 -2.222656 C 18.578125 -3.3125 19.714844 -4.695312 20.605469 -6.273438 C 21 -6.917969 21.296875 -7.660156 21.496094 -8.398438 C 21.742188 -9.09375 21.742188 -9.832031 21.542969 -10.574219 C 21.246094 -11.710938 20.257812 -12.402344 19.121094 -12.15625 C 18.382812 -12.007812 17.984375 -11.464844 17.640625 -10.773438 C 16.996094 -9.238281 16.207031 -7.808594 14.921875 -6.621094 C 12.898438 -4.742188 10.375 -5.683594 9.386719 -7.460938 C 7.855469 -10.226562 7.164062 -13.242188 7.015625 -16.40625 Z M 9.4375 -1.878906 C 7.3125 -1.878906 4.496094 -4.25 3.855469 -6.078125 C 4.742188 -5.285156 5.535156 -4.445312 6.421875 -3.753906 C 7.3125 -3.0625 8.300781 -2.570312 9.4375 -1.878906 Z M 10.671875 -31.722656 C 9.09375 -30.734375 7.609375 -29.796875 6.128906 -28.855469 C 6.472656 -30.042969 9.238281 -31.820312 10.671875 -31.722656 Z M 20.65625 -11.167969 C 18.972656 -11.414062 18.679688 -9.980469 17.738281 -9.191406 C 17.738281 -9.4375 17.691406 -9.585938 17.738281 -9.734375 C 18.085938 -10.277344 18.382812 -10.921875 18.824219 -11.363281 C 19.320312 -11.957031 19.960938 -11.859375 20.65625 -11.167969 Z M 19.519531 -26.484375 C 18.777344 -25.300781 17.097656 -25.992188 16.800781 -27.769531 C 17.640625 -27.078125 18.132812 -25.992188 19.519531 -26.484375 Z M 19.519531 -26.484375 "/></g></g></g><g fill="#3c6a98" fill-opacity="1"><g transform="translate(242.782697, 203.382472)"><g><path d="M 0 -28.558594 C 0 -28.3125 0 -28.015625 0 -27.71875 C 0.0976562 -27.621094 0.296875 -27.523438 0.394531 -27.421875 C 0.9375 -26.386719 1.828125 -26.1875 2.867188 -26.433594 C 3.359375 -26.535156 3.804688 -26.683594 4.300781 -26.78125 C 5.484375 -26.980469 6.671875 -27.277344 7.90625 -27.175781 C 7.90625 -26.582031 7.957031 -26.039062 7.90625 -25.496094 C 7.808594 -22.628906 7.660156 -19.714844 7.558594 -16.847656 C 7.410156 -13.144531 7.3125 -9.488281 7.117188 -5.832031 C 7.066406 -4.445312 7.460938 -3.164062 8.003906 -1.925781 C 8.398438 -0.9375 9.140625 -0.296875 10.226562 -0.199219 C 11.414062 -0.0976562 12.304688 -0.542969 12.898438 -1.53125 C 13.539062 -2.570312 14.03125 -3.707031 14.082031 -4.941406 C 14.179688 -8.300781 14.378906 -11.613281 14.28125 -14.972656 C 14.132812 -18.332031 14.03125 -21.742188 13.636719 -25.101562 C 13.539062 -25.941406 13.441406 -26.78125 13.339844 -27.621094 C 13.539062 -27.671875 13.6875 -27.71875 13.835938 -27.71875 C 14.824219 -27.769531 15.8125 -27.820312 16.800781 -27.820312 C 18.28125 -27.867188 19.8125 -27.867188 21.296875 -27.917969 C 22.234375 -27.96875 23.027344 -28.3125 23.667969 -29.003906 C 24.410156 -29.84375 24.507812 -30.980469 23.914062 -31.921875 C 23.421875 -32.761719 22.628906 -33.253906 21.691406 -33.304688 C 20.65625 -33.351562 19.667969 -33.402344 18.628906 -33.351562 C 16.554688 -33.253906 14.429688 -33.105469 12.351562 -32.910156 C 11.464844 -32.808594 10.574219 -32.5625 9.683594 -32.414062 C 7.363281 -31.921875 4.992188 -31.523438 2.816406 -30.636719 C 1.777344 -30.242188 0.789062 -29.796875 0.296875 -28.757812 C 0.246094 -28.660156 0.0976562 -28.609375 0 -28.558594 Z M 11.464844 -1.382812 C 10.625 -1.1875 10.128906 -1.480469 9.636719 -1.828125 C 8.84375 -2.421875 8.105469 -4.496094 8.449219 -6.128906 C 8.597656 -5.878906 8.695312 -5.730469 8.746094 -5.582031 C 8.894531 -5.140625 9.042969 -4.695312 9.191406 -4.25 C 9.4375 -3.210938 9.980469 -2.371094 10.96875 -1.878906 C 11.117188 -1.777344 11.214844 -1.582031 11.464844 -1.382812 Z M 20.0625 -28.855469 C 20.800781 -29.253906 21.445312 -29.449219 21.9375 -29.894531 C 22.382812 -30.242188 22.679688 -30.832031 23.074219 -31.328125 C 23.421875 -30.980469 23.421875 -30.535156 22.925781 -29.84375 C 22.234375 -28.855469 21.199219 -28.460938 20.0625 -28.855469 Z M 4.25 -27.523438 C 3.457031 -26.78125 2.222656 -26.832031 1.53125 -27.472656 C 0.988281 -27.96875 0.9375 -28.609375 1.480469 -29.253906 C 1.582031 -29.054688 1.679688 -28.90625 1.679688 -28.757812 C 1.777344 -28.015625 2.273438 -27.71875 2.914062 -27.621094 C 3.359375 -27.570312 3.804688 -27.570312 4.25 -27.523438 Z M 4.25 -27.523438 "/></g></g></g><g fill="#3c6a98" fill-opacity="1"><g transform="translate(268.575862, 203.382472)"><g><path d="M 3.65625 -4.101562 C 3.261719 -3.953125 2.964844 -3.855469 2.617188 -3.753906 C 2.125 -3.605469 1.628906 -3.457031 1.136719 -3.261719 C 0.296875 -2.816406 -0.148438 -1.878906 0.0507812 -1.085938 C 0.246094 -0.148438 1.085938 0.445312 2.074219 0.394531 C 2.421875 0.394531 2.765625 0.347656 3.113281 0.296875 C 3.605469 0.199219 4.101562 0.148438 4.59375 0.0976562 C 6.128906 0 7.660156 0.0976562 9.191406 0.347656 C 9.882812 0.445312 10.625 0.542969 11.316406 0.542969 C 12.402344 0.542969 13.191406 -0.0976562 13.390625 -1.085938 C 13.636719 -2.074219 13.292969 -3.0625 12.351562 -3.507812 C 11.761719 -3.804688 11.117188 -3.902344 10.523438 -4.101562 C 10.226562 -4.199219 9.933594 -4.300781 9.683594 -4.347656 C 9.734375 -5.484375 9.832031 -6.523438 9.785156 -7.511719 C 9.734375 -10.574219 9.636719 -13.636719 9.535156 -16.703125 C 9.488281 -18.183594 9.4375 -19.617188 9.339844 -21.097656 C 9.140625 -23.617188 8.894531 -26.140625 8.695312 -28.707031 C 8.695312 -28.957031 8.746094 -29.253906 8.746094 -29.597656 C 9.140625 -29.546875 9.4375 -29.5 9.785156 -29.5 C 10.820312 -29.398438 11.808594 -30.042969 12.007812 -31.03125 C 12.304688 -32.117188 11.808594 -33.15625 10.722656 -33.5 C 10.128906 -33.699219 9.488281 -33.796875 8.84375 -33.847656 C 6.820312 -34.046875 4.84375 -33.550781 2.867188 -33.058594 C 2.324219 -32.910156 1.828125 -32.710938 1.335938 -32.414062 C 0.691406 -32.117188 0.347656 -31.574219 0.347656 -30.832031 C 0.347656 -30.09375 0.691406 -29.5 1.335938 -29.300781 C 1.828125 -29.152344 2.371094 -29.203125 2.867188 -29.203125 C 3.261719 -29.203125 3.605469 -29.351562 4.101562 -29.449219 C 4.101562 -28.855469 4.101562 -28.410156 4.101562 -28.015625 C 3.953125 -25.941406 3.804688 -23.914062 3.65625 -21.890625 C 3.3125 -17.835938 3.113281 -13.785156 3.164062 -9.734375 C 3.164062 -7.90625 3.164062 -6.027344 3.65625 -4.101562 Z M 12.550781 -2.371094 C 12.898438 -1.828125 12.847656 -1.382812 12.402344 -0.789062 C 11.910156 -0.148438 11.316406 0.148438 10.277344 -0.148438 C 10.871094 -0.492188 11.363281 -0.691406 11.761719 -1.039062 C 12.105469 -1.382812 12.304688 -1.925781 12.550781 -2.371094 Z M 9.386719 -30.242188 C 10.820312 -31.226562 10.820312 -31.226562 11.265625 -32.117188 C 11.613281 -31.722656 11.613281 -31.179688 11.265625 -30.683594 C 10.820312 -30.09375 10.179688 -29.945312 9.386719 -30.242188 Z M 1.976562 -32.214844 C 1.628906 -31.277344 1.480469 -30.4375 2.617188 -29.945312 C 1.878906 -29.695312 1.433594 -29.894531 1.1875 -30.535156 C 0.9375 -31.226562 1.234375 -31.921875 1.976562 -32.214844 Z M 1.085938 -2.273438 C 1.136719 -1.285156 1.777344 -0.789062 2.617188 -0.394531 C 1.976562 -0.0976562 1.480469 -0.199219 1.136719 -0.640625 C 0.691406 -1.1875 0.640625 -1.730469 1.085938 -2.273438 Z M 1.085938 -2.273438 "/></g></g></g><g fill="#3c6a98" fill-opacity="1"><g transform="translate(283.547761, 203.382472)"><g><path d="M 10.921875 -7.214844 C 10.871094 -7.214844 10.820312 -7.261719 10.773438 -7.261719 C 10.671875 -7.410156 10.574219 -7.558594 10.574219 -7.707031 C 9.636719 -11.511719 8.695312 -15.316406 7.707031 -19.121094 C 6.867188 -22.53125 5.929688 -25.890625 4.941406 -29.253906 C 4.742188 -29.992188 4.347656 -30.683594 3.902344 -31.277344 C 3.410156 -31.96875 2.617188 -32.265625 1.730469 -32.070312 C 0.839844 -31.820312 0.246094 -31.226562 0.0976562 -30.289062 C 0.0507812 -29.945312 0 -29.546875 0.0507812 -29.152344 C 0.148438 -28.015625 0.246094 -26.832031 0.394531 -25.695312 C 0.691406 -23.519531 1.039062 -21.394531 1.335938 -19.269531 C 1.628906 -16.453125 1.925781 -13.6875 2.570312 -10.96875 C 3.113281 -8.695312 3.65625 -6.375 4.644531 -4.25 C 5.582031 -2.324219 7.066406 -1.039062 9.140625 -0.59375 C 10.96875 -0.199219 12.453125 -0.640625 13.441406 -2.222656 C 13.933594 -3.015625 14.476562 -3.855469 14.875 -4.742188 C 16.40625 -8.25 17.640625 -11.910156 18.824219 -15.613281 C 20.257812 -19.960938 21.640625 -24.359375 23.027344 -28.757812 C 23.273438 -29.449219 23.421875 -30.191406 23.371094 -30.933594 C 23.324219 -32.363281 22.136719 -33.304688 20.65625 -33.105469 C 19.863281 -32.957031 19.269531 -32.464844 18.925781 -31.773438 C 18.578125 -30.980469 18.28125 -30.191406 18.035156 -29.398438 C 16.601562 -24.804688 15.167969 -20.160156 13.738281 -15.566406 C 12.996094 -13.042969 12.15625 -10.574219 11.316406 -8.054688 C 11.214844 -7.757812 11.066406 -7.511719 10.921875 -7.214844 Z M 10.96875 -1.777344 C 10.425781 -1.285156 9.832031 -1.382812 9.238281 -1.582031 C 7.707031 -2.027344 6.621094 -3.0625 5.980469 -4.445312 C 5.433594 -5.433594 5.1875 -6.570312 4.792969 -7.609375 C 4.742188 -7.707031 4.792969 -7.855469 4.792969 -8.152344 C 5.039062 -7.90625 5.1875 -7.757812 5.238281 -7.609375 C 5.582031 -6.917969 5.929688 -6.175781 6.273438 -5.484375 C 7.164062 -3.707031 8.5 -2.421875 10.523438 -1.976562 C 10.671875 -1.925781 10.820312 -1.878906 10.96875 -1.777344 Z M 21.9375 -32.117188 C 21.394531 -31.820312 20.800781 -31.625 20.359375 -31.328125 C 19.960938 -30.980469 19.667969 -30.488281 19.320312 -30.042969 C 19.023438 -30.734375 19.269531 -31.476562 20.0625 -32.070312 C 20.703125 -32.5625 21.296875 -32.5625 21.9375 -32.117188 Z M 0.988281 -28.117188 C 0.59375 -28.855469 0.789062 -29.597656 1.085938 -30.339844 C 1.335938 -31.03125 1.628906 -31.226562 2.371094 -31.277344 C 2.125 -30.734375 1.828125 -30.242188 1.628906 -29.695312 C 1.433594 -29.152344 1.335938 -28.609375 1.234375 -28.066406 C 1.136719 -28.066406 1.085938 -28.066406 0.988281 -28.117188 Z M 0.988281 -28.117188 "/></g></g></g></svg>