<svg width="190" height="144" viewBox="0 0 190 144" fill="none" xmlns="http://www.w3.org/2000/svg">
<path d="M166.25 60H150.417V24H158.333V12H31.6667V24H39.5834V60H23.75C21.6504 60 19.6368 60.6321 18.1521 61.7574C16.6674 62.8826 15.8334 64.4087 15.8334 66V120H174.167V66C174.167 64.4087 173.333 62.8826 171.848 61.7574C170.363 60.6321 168.35 60 166.25 60ZM110.833 108V84H79.1667V108H55.4167V24H134.583V108H110.833Z" fill="black"/>
<path d="M71.25 36H87.0833V48H71.25V36ZM102.917 36H118.75V48H102.917V36ZM71.25 60H87.0833V72H71.25V60ZM102.917 60H118.75V72H102.917V60Z" fill="black"/>
</svg>
