<svg width="32" height="32" viewBox="0 0 32 32" fill="none" xmlns="http://www.w3.org/2000/svg">
<path d="M4 23V28H9L23.7467 13.2533L18.7467 8.25333L4 23ZM27.6133 9.38666C27.7369 9.26331 27.835 9.11679 27.9019 8.95549C27.9688 8.79419 28.0033 8.62128 28.0033 8.44666C28.0033 8.27204 27.9688 8.09913 27.9019 7.93783C27.835 7.77653 27.7369 7.63001 27.6133 7.50666L24.4933 4.38666C24.37 4.26306 24.2235 4.16499 24.0622 4.09808C23.9009 4.03117 23.728 3.99673 23.5533 3.99673C23.3787 3.99673 23.2058 4.03117 23.0445 4.09808C22.8832 4.16499 22.7367 4.26306 22.6133 4.38666L20.1733 6.82666L25.1733 11.8267L27.6133 9.38666Z" fill="black"/>
</svg>
