<svg width="45" height="52" viewBox="0 0 45 52" fill="none" xmlns="http://www.w3.org/2000/svg">
<path d="M28.125 4.33337H11.25C9.1875 4.33337 7.5 6.28337 7.5 8.66671V43.3334C7.5 45.7167 9.1875 47.6667 11.25 47.6667H33.75C35.8125 47.6667 37.5 45.7167 37.5 43.3334V15.1667L28.125 4.33337ZM11.25 43.3334V8.66671H26.25V17.3334H33.75V43.3334H11.25ZM30 21.6667V32.5C30 37.2884 26.6438 41.1667 22.5 41.1667C18.3562 41.1667 15 37.2884 15 32.5V18.4167C14.9991 17.6572 15.1364 16.906 15.403 16.2118C15.6696 15.5176 16.0595 14.8959 16.5475 14.3872C17.0356 13.8784 17.6107 13.4939 18.2356 13.2587C18.8606 13.0235 19.5213 12.9427 20.175 13.0217C22.6125 13.3034 24.375 15.8817 24.375 18.72V32.5H20.625V18.4167C20.625 17.81 20.2125 17.3334 19.6875 17.3334C19.1625 17.3334 18.75 17.81 18.75 18.4167V32.5C18.75 34.8834 20.4375 36.8334 22.5 36.8334C24.5625 36.8334 26.25 34.8834 26.25 32.5V21.6667H30Z" fill="black"/>
</svg>
