<svg width="146" height="110" viewBox="0 0 146 110" fill="none" xmlns="http://www.w3.org/2000/svg">
<path fill-rule="evenodd" clip-rule="evenodd" d="M73 104.5C109.285 104.5 138.7 82.3376 138.7 54.9999C138.7 27.6622 109.285 5.49999 73 5.49999C36.7154 5.49999 7.3 27.6622 7.3 54.9999C7.3 82.3376 36.7154 104.5 73 104.5ZM73 110C113.318 110 146 85.3763 146 54.9999C146 24.6235 113.318 0 73 0C32.6821 0 0 24.6235 0 54.9999C0 85.3763 32.6821 110 73 110Z" fill="black"/>
<path d="M29.2001 86.9823C29.2001 84.1416 32.0179 81.7408 35.7701 81.4273C63.9298 79.0788 82.1981 79.2906 110.296 81.4796C111.699 81.5906 113.029 82.0071 114.123 82.6781C115.217 83.3492 116.028 84.2458 116.457 85.2584C116.886 86.271 116.914 87.3559 116.538 88.3804C116.162 89.4049 115.398 90.3247 114.34 91.0276C81.1797 112.805 62.2289 112.505 31.5361 91.0496C30.0396 90.0046 29.2001 88.5196 29.2001 86.9851V86.9823Z" fill="black"/>
<path fill-rule="evenodd" clip-rule="evenodd" d="M109.92 84.2131C82.0447 82.0406 64.0392 81.8371 36.1678 84.1609C35.2503 84.2414 34.4046 84.5741 33.7924 85.0952C33.1802 85.6163 32.8446 86.2892 32.8499 86.9851C32.8499 87.7716 33.2843 88.5169 34.0179 89.0339C49.2311 99.6653 60.7578 104.47 72.0254 104.5C83.3331 104.53 95.4803 99.7643 111.942 88.9569C112.465 88.6062 112.841 88.1486 113.025 87.6397C113.21 87.1308 113.194 86.5925 112.98 86.0903C112.765 85.5881 112.362 85.1436 111.819 84.8109C111.276 84.4781 110.616 84.2714 109.92 84.2159V84.2131ZM35.3684 78.6939C63.8238 76.3206 82.3585 76.5351 110.675 78.7434C112.786 78.9094 114.787 79.5355 116.433 80.545C118.078 81.5545 119.298 82.9037 119.942 84.4273C120.585 85.9509 120.625 87.5829 120.057 89.1235C119.489 90.664 118.337 92.0463 116.742 93.1011C100.043 104.068 86.1363 110.041 72.0035 110C57.8305 109.961 44.5373 103.887 29.0576 93.0653C27.9493 92.2876 27.0658 91.346 26.4622 90.2993C25.8587 89.2527 25.5481 88.1235 25.5499 86.9824C25.5446 84.9321 26.5435 82.9523 28.3552 81.4224C30.1669 79.8925 32.6641 78.92 35.3684 78.6911V78.6939Z" fill="black"/>
<path d="M102.2 43.9999C102.2 49.8347 99.1236 55.4305 93.6476 59.5562C88.1715 63.682 80.7444 65.9999 73 65.9999C65.2557 65.9999 57.8286 63.682 52.3525 59.5562C46.8765 55.4305 43.8 49.8347 43.8 43.9999C43.8 38.1652 46.8765 32.5694 52.3525 28.4436C57.8286 24.3178 65.2557 22 73 22C80.7444 22 88.1715 24.3178 93.6476 28.4436C99.1236 32.5694 102.2 38.1652 102.2 43.9999Z" fill="black"/>
<path fill-rule="evenodd" clip-rule="evenodd" d="M73 60.4999C78.8083 60.4999 84.3786 58.7615 88.4857 55.6672C92.5927 52.5728 94.9 48.376 94.9 43.9999C94.9 39.6239 92.5927 35.427 88.4857 32.3327C84.3786 29.2383 78.8083 27.5 73 27.5C67.1918 27.5 61.6215 29.2383 57.5144 32.3327C53.4074 35.427 51.1 39.6239 51.1 43.9999C51.1 48.376 53.4074 52.5728 57.5144 55.6672C61.6215 58.7615 67.1918 60.4999 73 60.4999ZM73 65.9999C80.7444 65.9999 88.1715 63.682 93.6476 59.5562C99.1236 55.4305 102.2 49.8347 102.2 43.9999C102.2 38.1652 99.1236 32.5694 93.6476 28.4436C88.1715 24.3178 80.7444 22 73 22C65.2557 22 57.8286 24.3178 52.3525 28.4436C46.8765 32.5694 43.8 38.1652 43.8 43.9999C43.8 49.8347 46.8765 55.4305 52.3525 59.5562C57.8286 63.682 65.2557 65.9999 73 65.9999Z" fill="black"/>
</svg>
